<svg xmlns="http://www.w3.org/2000/svg" viewBox="0 0 285.78 375.41"><defs><style>.cls-1,.cls-2{fill:#fff;}.cls-1,.cls-3{stroke:#000;stroke-linecap:round;stroke-linejoin:round;}.cls-3{fill:none;}</style></defs><g id="Layer_2" data-name="Layer 2"><g id="Layer_2-2" data-name="Layer 2"><polygon points="180.73 354.55 180.5 271.77 214.24 293.18 214.46 374.53 180.73 354.55"/><path d="M181,272.68l32.74,20.77.22,80.2-32.73-19.39L181,272.68m-1-1.82.24,84L215,375.41l-.22-82.51-34.75-22Z"/><polyline class="cls-1" points="108.19 270.47 107.95 353.52 72.72 373.88"/><polygon class="cls-1" points="284.82 165.8 284.15 82.89 216.28 124.85 214.51 209.51 145.9 249.37 145.9 332.5 180.9 312.45 180.91 312.45 214.74 292.79 214.97 374.89 285.28 332.91 284.82 165.8"/><polygon class="cls-2" points="73.92 124.13 143.4 83.76 143.17 166.16 73.69 206.53 73.92 124.13"/><path d="M142.9,84.63l-.23,81.24L74.19,205.66l.23-81.24L142.9,84.63m1-1.74Zm0,0-70.48,41-.24,83.56,70.48-41,.24-83.56Z"/><polygon points="214.51 209.51 216.28 124.85 143.91 82.89 143.58 166.39 214.51 209.51"/><path d="M.5,332.24,1.21,82.72l71.71,41.41-.23,83.27a.5.5,0,0,0,.25.43l72.46,41.83-.24,82.41-72-41.55a.45.45,0,0,0-.25-.07.47.47,0,0,0-.25.07.5.5,0,0,0-.25.43l-.23,82.69Z"/><path d="M1.71,83.59l70.71,40.83-.23,83a1,1,0,0,0,.5.87L144.9,250l-.23,81.25L73.45,290.09A1,1,0,0,0,73,290a1.13,1.13,0,0,0-.5.13,1,1,0,0,0-.5.87l-.23,81.83L1,332l.24-83,.23-83.55.24-81.83m-1-1.73L.47,165.41.24,249,0,332.52l72.43,41.82a.16.16,0,0,0,.09,0,.2.2,0,0,0,.2-.19L73,291l72.71,42,.24-83.56-72.71-42,.24-83.56L.71,81.86Z"/><polyline class="cls-3" points="1.12 82.42 142.09 0.5 284.15 82.89"/></g></g></svg>