<svg xmlns="http://www.w3.org/2000/svg" viewBox="0 0 1280 844"><defs><style>.cls-1{fill:#d6d6d6;}.cls-2{fill:none;stroke:#000;stroke-miterlimit:10;stroke-width:4px;}.cls-3,.cls-6{fill:#070605;}.cls-3{opacity:0.32;}.cls-4{fill:#fff;}.cls-5{fill:#040404;}.cls-7{fill:#fafafa;}</style></defs><g id="Layer_2" data-name="Layer 2"><g id="Layer_3" data-name="Layer 3"><rect class="cls-1" y="286.22" width="1280" height="557.79"/><line class="cls-2" y1="286.22" x2="1280" y2="286.22"/><path class="cls-3" d="M917.92,561.81a185.89,185.89,0,0,0,2.66-20.16,2,2,0,0,1,1.64-2.23,6.1,6.1,0,0,0,3.26-8.77,12.3,12.3,0,0,1-.63-1.76,3.58,3.58,0,0,0-3.75-2.53,1.65,1.65,0,0,1-1.42-.53,4,4,0,0,0-4.49-.92,2.61,2.61,0,0,1-2.61-.28,3.16,3.16,0,0,0-2.74-.59c-2.32,1.11-5.4,1.4-6.92,3.39s-1.46,4.42-.35,6.75a7.77,7.77,0,0,1,.87,4.5c-.87,6.94-.92,14-2,20.91-.47,2.86-1,5.7-1.47,8.57-.13.89-.76,1-1.65.93-3.3-.12-6.59-.33-9.87-.17a3.14,3.14,0,0,0-2.82,1.28c-.2.29-.2.81-.83.7s-.51-.62-.57-1a49.82,49.82,0,0,1-1.05-10.48c0-.43,0-.87,0-1.3.34-5.07-2.81-8.83-8.38-11.57-1.4-.7-1.47-1.44-1.31-2.37.84-4.76,1.88-9.48,2.51-14.27,1.24-9.44,3.31-18.74,3.54-28.34a203.78,203.78,0,0,0-1.13-27.11c-.5-4.53-.57-9.05-.85-13.58a12.08,12.08,0,0,0-.31-2.45c-.32-1.16-.37-2.6-2.84-2-.57.14-1.54-.45-2.32-.73a109.29,109.29,0,0,0-19-4.81c-1.88-.33-2.59-.81-2.77-2.44-1.19-10.29-3.25-20.58-5.21-30.86a11.34,11.34,0,0,0-5.61-7.46c-4.09-2.54-9-2.57-12.41-.13-5.5,3.89-7.27,9.41-8.83,15a10.2,10.2,0,0,0,.56,6c1.25,3.67,4.6,5.11,8.06,2.65.7-.49,1.54-1.46,2.34-1.13,1,.39.59,1.58.76,2.41.77,3.88,1.46,7.77,2.26,11.65.23,1.14-.06,1.53-1.61,1.4a97,97,0,0,0-14.57,0c-1.38.09-1.91-.15-2.22-1.31-1.83-6.8-3.76-13.6-5.67-20.4-.34-1.2-.73-2.39-1.07-3.59-.5-1.75-1.16-3.39-.84-5.26.66-3.79-2.09-7.41-6.12-9-5-2-9.62-1.55-12.67,1.61a34.77,34.77,0,0,0-9.33,16.52c-.59,2.62,2.09,7,6.25,8.51,2.68,1,5.09.66,6.81-1a41.61,41.61,0,0,0,2.83-3.35c1.68,6,3.39,11.67,4.52,17.35.21,1.05-.29,1.4-1.48,1.58-3.48.53-6.92,1.18-10.38,1.77-2.92.5-5.31,1.78-7.88,2.78-1.4.55-1,1.75-.94,2.73.26,3.72.63,7.43.94,11.15.73,8.66,3.11,17.25,5.26,25.87,2.43,9.76,7,19.18,10.19,28.8,2,5.95,4.9,11.78,6.49,17.78.53,2,.84,4,1.2,6.06a1.64,1.64,0,0,1-.14,1.26c-1.58,2-.9,4.32-.75,6.6.3,4.58.33,9.13.52,13.7.1,2.5.31,5,.44,7.52,0,.59.29,1.22-.3,1.89a12.91,12.91,0,0,1-1.57-4.31c-1-4-2.14-4.59-6.82-3.74a46.32,46.32,0,0,0-11.19,3.45c-1,.44-1.4.36-2.64-.39-3.68-2.27-7.14-5.17-12.3-5-3.19.11-5.55.86-7.1,3-2.38,3.26-3.55,6.94-4.9,10.57-3.73,10-5.75,20.43-7.52,30.91-.6,3.5-1.12,7-1.65,10.51a1.82,1.82,0,0,1-.87,1.32c-2.91,2-3.33,4.4-1.37,7.4A5,5,0,0,0,745,633a6.19,6.19,0,0,1,2.89,7.13,8.09,8.09,0,0,0,.67,5,3,3,0,0,0,2.27,2.12,2.52,2.52,0,0,0,2.8-1.36,24.86,24.86,0,0,0,3.49-8c.21-1.15.67-1.79,2.31-2a5.08,5.08,0,0,0,3.47-7.9,3.49,3.49,0,0,1-.57-2.89c1.82-9.09,3.6-18.2,6.16-27.13.13-.42-.13-1.12.68-1.13.58,0,.82.59,1.13,1,7.84,9.51,16.88,18.37,25.92,27.22,1.1,1.08,2.3,2.09,3.44,3.15,3.78,3.51,9,4.48,13.88,5.17a80.52,80.52,0,0,1,17.29,4.57c1.08.41,1.75.48,2.34-.38s1.29-.82,2.1.21a20.48,20.48,0,0,1,3.61,6.35c.25.79.06,1.17-.86,1.47-8.18,2.7-12.8,7.78-14.71,14.66-.23.82-.54,1.63-.76,2.46a7.07,7.07,0,0,1-3.29,4.58c-2.86,1.75-3.77,5-.27,8.18,1.71,1.55,1.74,3.54,1.59,5.37-.19,2.36-.65,4.68-.85,7-.08.92-.54,1.14-1.62,1.07-1.24-.08-2.47.1-3.7,0-2.1-.25-3,.36-3.43,1.95-1.59,6-.72,12,1.77,18.13a48,48,0,0,0,6,10.37c4.68,6.32,14.32,9.38,22.19,7.91a5.44,5.44,0,0,1,3.58.63c7.28,3.26,14.79,4.82,22.48,3.24,2.76-.56,5.64-1,7.89-2.39,6.94-4.33,13.35-9.06,17.61-15.34,1.28-1.91,2.67-3.77,3.81-5.76,3.58-6.24,3.83-13.27,4.94-20.09,1-6.42,1-13,2-19.44A44,44,0,0,1,908,654.74c3.9-7.52,7.48-15.16,9.4-23.34.41-1.78.77-3.57,1.13-5.36.61-3.14-.21-4.42-4.21-5.68-2.07-.65-2.06-1.19-1.37-2.53,5.18-10.08,11-19.9,15.35-30.31,1-2.38,1.08-5,2.29-7.35.47-.91-.46-1.52-1.24-2.15-3.57-2.91-7.45-5.37-12.43-6.24-1.53-.27-1-1.06-.89-1.66C916.64,567.34,917.38,564.59,917.92,561.81ZM794.75,409.56a10.1,10.1,0,0,1,7.06,2.62,10,10,0,0,0-7.06-2.61,6.58,6.58,0,0,0-3.94.91A6.66,6.66,0,0,1,794.75,409.56Z"/><path class="cls-3" d="M515,634c.61,1.45,2.25,2.93,0,4.54-1.9,1.35-3.89.41-5.95,0,.13.72.18,1.24.32,1.76a7.58,7.58,0,0,1,0,4.64,3.07,3.07,0,0,1-2.39,2.19,4.13,4.13,0,0,1-3.4-.58c-1.23-.77-2.36-1.61-3.64-2.51-.45,1-.76,1.84-1.25,2.68a2.91,2.91,0,0,1-2.33,1.42,3.11,3.11,0,0,1-2.6-.68,5.77,5.77,0,0,1-1.65-2.8c-.51-1.81-1-3.61-1.52-5.51l-.86.78c-2.33,2.08-5,2.2-6.6.29a3.91,3.91,0,0,1-.9-2.84c.14-3.56,1.77-7.08,3.85-10.65-1.68-.3-4.1.31-4.9-1.22-3.39-6.51-8.05-12.63-10.51-19.41-.63-1.77-1.2-3.55-1.91-5.64-4.51,4.85-9.11,9.22-14,13.5a34.89,34.89,0,0,1-10.35,6.79c-2.79,1.11-5.58,1.9-8.85,1.23-2.47-.52-5.52-.26-8.32-.34a1.52,1.52,0,0,0-.68.08c-1.28,1.53-3.94,1.64-5.85,2.54-4.29,2-8.5,4.15-13.11,5.87-.8.3-.93.47-.64,1,.5,1-.42,1.61-2.16,1.38a2.1,2.1,0,0,0-1.9.4,15.51,15.51,0,0,0-3.77,4.08c2.36.08,4.68-.14,6.76.31A18.41,18.41,0,0,1,416,643a29.91,29.91,0,0,1,7.36,12.42,2.55,2.55,0,0,0,.66,1c3,3,3.19,6.6-4.67,8.72a9.88,9.88,0,0,0-5.68,3.45,14.62,14.62,0,0,0-2,4.23,42.36,42.36,0,0,1-8.31,14.85c-1,1.14-.88,1.46,1,1.59a13,13,0,0,1,4.34,1.21c4.72,2.1,5.44,4.49,2.21,8.19-.55.63-.27.94,0,1.36a6.08,6.08,0,0,1,1.07,5.2c-.61,2.85-3,4.55-7.53,5.33a22,22,0,0,1-7.67,0,7.13,7.13,0,0,0-4.86.89c-5.34,2.57-9.87,2.83-14.7.91a19.57,19.57,0,0,1-3.45-1.76,3.4,3.4,0,0,0-3.19-.25,24.46,24.46,0,0,1-18.18-1.06,4.49,4.49,0,0,0-4,0c-5.61,2.17-8.91,2.11-13.27-.13a15.39,15.39,0,0,1-5.77-5.12c-.74-1.07-.71-2.52-3.4-2.6-.58,0-1-.5-1.46-.82a14,14,0,0,1-5.36-8.07,5.33,5.33,0,0,1,1.54-5.39c.76-.77.73-1.31.22-2a13,13,0,0,1-2.36-5.27c-.63-2.82.06-5.62,3-8.32a16.14,16.14,0,0,0,4.14-6.54c.83-3.21,3.11-6,8.22-7.63,1.94-.61,2.38-1.1,2.33-2.27-.15-3.67,3.82-6.74,9.15-7.3a9.72,9.72,0,0,1,6.95,1.9c.38-.74.66-1.28.93-1.82,2.5-5,4.09-10.06,3.86-15.07-.05-1.13-.4-1.92-2.59-1.76-.72,0-1.6,0-1.7-.52-.18-.94-1.45-1.25-2.27-1.82-2.83-2-7.78-2.41-9.83-5-.07-.08-.44-.06-.68-.07-1.85,0-3.69-.12-5.55,0-2.94.23-5.05-.28-6.74-1.59a11.79,11.79,0,0,1-4.6-9.22c-.63-11.26-1.85-22.47,0-34,.51-3.18,1-6.31,4.33-9.37a123.25,123.25,0,0,1,23.05-17.37c1.23-.7,1.9-1.39,2-2.32a13.43,13.43,0,0,0,.22-2.58c-.53-4,1.23-8.08,2-12.1a17.88,17.88,0,0,1,3.58-7.61,56.86,56.86,0,0,0,5.61-9.26c1.75-3.37,3.93-6.58,9.75-8.44,2.08-.66,4.11-1.43,6.27-1.95,1-.24,1.54-.57,1.79-1.22,1.06-2.7,2.47-5.38,3.32-8.09a94,94,0,0,1,4.7-11.13c2.26-4.86,4.64-9.72,7-14.57,2.19-4.55,4.15-9.13,6.64-13.65,4.61-8.4,9.39-16.77,12.81-25.27a4.47,4.47,0,0,1,2.84-2.68c3.64-1.55,6.29-3.35,7.44-6.35,2.46-6.47,12.86-10.08,22-8,6.73,1.53,10.07,5,11.76,9.23a25.49,25.49,0,0,1,0,19.25c-1.25,3.3-6.38,6.15-11.56,6-2.64-.09-2.87.58-3.3,1.84-3.83,11.39-7.59,22.77-12.48,34.12-2,4.6-4.69,9.16-6.06,13.81-.37,1.25.08,1.57,1.89,1.52s3.73,0,5.55.05c1.25.06,1.8-.06,2.24-1,2.21-4.6,4.38-9.21,6.93-13.77,4.39-7.88,9.17-15.72,13.59-23.59,5.83-10.38,10.84-20.86,18.45-31,1.83-2.45,3.95-3.41,7.74-3,1.25.15,1.75,0,2-.87a33.85,33.85,0,0,1,1.32-3.68c1.34-3.24,4.7-5.62,9.79-6.4,10.77-1.63,15.44-.82,19.82,3.58.35.36.71.71,1.05,1.08,6.48,7.07,7.41,15.26,6.11,23.88-.52,3.45-3.31,6.42-8.34,8.4-7.15,2.81-11.19,2.5-14.63,0-.31-.23-.52-.69-1.2-.52s-.64.7-.84,1.08c-1.76,3.27-3.41,6.56-5.3,9.81-3.74,6.46-7.35,12.94-10.57,19.46-3.31,6.72-6.44,13.45-9.71,20.18-.34.69-.16,1,.78,1.24,1.72.41,3.43.82,5.06,1.31,2.93.9,3.54,1.79,2.46,3.94q-3.07,6.11-6.35,12.19c-3.6,6.63-6.88,13.31-11,19.89A61.74,61.74,0,0,0,457.46,559c6.39-3.22,12.62-5.08,19.62-4.66,4.18.25,8.55.26,11.74,1.92a25.87,25.87,0,0,1,7,5.25c2.86,3.06,3.85,6.62,4.91,10.23,4.66,15.91,9.85,31.71,13.08,47.91.29,1.49.3,2.78-2.62,3.73a27,27,0,0,1,7.77,5.52C521.25,631.33,519.89,633.05,515,634Z"/><path class="cls-4" d="M444.5,62.88a1.17,1.17,0,0,0,.34-1.56c-.77-1.11,0-1.35.76-1.82,2.18-1.42,4.4-2.83,4.52-5.87,0-.85.85-.88,1.41-1.12a15.13,15.13,0,0,0,7.82-6.46c.44-.8,1-.61,1.61-.67a19.64,19.64,0,0,0,10.76-4.53,7.27,7.27,0,0,0,2.86-4.67c.17-1.38.8-1.16,1.74-.91a38.14,38.14,0,0,0,11.11,1.16,6.34,6.34,0,0,0,3.14-.66c1.54-1,1.81-.1,2.19,1.12a61.44,61.44,0,0,1,2.61,19.57,45.26,45.26,0,0,0,.18,6.68,11,11,0,0,0,5.09,8.07c.72.47,1.45.93,2.16,1.42,1.61,1.11,2.23,2.72,1.07,4.27-3.54,4.75-5.57,10.36-8.92,15.2a2.39,2.39,0,0,1-.41.47h0a2.73,2.73,0,0,1-1.23,1.64,6.85,6.85,0,0,1-1.09,1.7,13.61,13.61,0,0,1-1.43,1.85l-.39.36a20,20,0,0,1-8.12,6.2c-4.72,1.8-9.06-.19-13.21-2.17a15.48,15.48,0,0,1-7.42-7.55c-.44-.93-.95-2-2.2-1.49s-.7,1.66-.27,2.56a19.36,19.36,0,0,0,11.22,10.12c1.69.62,2.77,1.39,2.9,3.37a12.42,12.42,0,0,0,1.07,3.47c.88,2.27.91,2.32-1.63,2.21-5.39-.23-10.77-.71-16.16-.79s-10.64.29-15.94-.4l-1.2-.17a60.65,60.65,0,0,0,1.94-20c0-.47,0-.94-.07-1.41a43.16,43.16,0,0,0-.44-4.94,13.93,13.93,0,0,0-.39-1.67,3.08,3.08,0,0,1,2.22-3.6l.26-.07c3.23-.73,5-3.25,6.63-5.77a1.27,1.27,0,0,0-.38-1.74,1.22,1.22,0,0,0-1.75.19c-.91.91-1.73,1.92-2.6,2.87a4.3,4.3,0,0,1-3,1.71c-1.13,0-2.14-.82-2.89-2.49-1.82-4-1.55-8.29-.22-12.41.69-2.12,2.2-2.46,4.18-1.31C443.48,63.13,444,63.29,444.5,62.88Z"/><path class="cls-4" d="M819.28,140c.1,1,1.07,1,2.38,1,.73-.13,1.92-.33,3.1-.57.63-.12,1.23-.46,1.16-1.16s-.83-1-1.53-.94c-1.13.11-2.25.34-3.37.5C820.23,139,819.18,138.9,819.28,140Zm-10.9,0a12,12,0,0,0,5.34,0c.64-.16,1.14-.5,1-1.25s-.71-.89-1.37-.84l-2,.17c-.95-.06-1.75-.13-2.55-.15s-1.23.2-1.29.94A1,1,0,0,0,808.38,140ZM798,134.18a1.06,1.06,0,0,0-1.38.51c-.34.7.06,1.19.62,1.49a15.34,15.34,0,0,0,4.16,1.45c.62,0,1.23-.09,1.47-.8s-.16-1-.7-1.23C800.83,135.09,799.43,134.63,798,134.18Zm51.45,18.42c.7,3.15,2.9,3.1,5.22,2.94,1.47-.11,2.95,0,4.42-.08s2.25-.92,2-2.55a41.27,41.27,0,0,1-.56-6.81c.74,1.56,1.49,3.11,2.22,4.67a2.69,2.69,0,0,0,3.42,1.65c2-.45,3.95-.76,5.93-1.1,2.77-.48,3.68-1.76,3.19-4.52a10,10,0,0,1-.09-1.07,28.48,28.48,0,0,1,6.51,8.25c2.45,4.44,4.21,9.27,6.82,13.57a126.29,126.29,0,0,1,12.36,25.68,4.23,4.23,0,0,1-.86,4.48c-3,4-7.51,5-11.77,6.47-7.21,2.48-14.74,2.52-22.25,2.62a3,3,0,0,1-3.14-2.26c-1.56-4.38-2.35-8.95-3.44-13.43-2.19-8.94-3-18.11-4-27.23a11.89,11.89,0,0,0-.11-1.2c-.16-.72-.25-1.64-1.21-1.59-1.13.06-1.07,1-1,1.83.67,6.33,1.24,12.68,2.17,19A86.75,86.75,0,0,0,858,195.28c.54,1.75-.16,3.34-.1,5,.23,6.23-.16,12.47.39,18.7a37.27,37.27,0,0,1,0,7.76,9.69,9.69,0,0,1-4,7.07C846.93,239,838.76,240,830.1,239a20.34,20.34,0,0,0-6.6.21,108.07,108.07,0,0,1-10.67,1.95,20.71,20.71,0,0,1-7-.49c-5.27-1.26-10.48-2.79-15.68-4.31a13.9,13.9,0,0,1-3.44-1.63,5.84,5.84,0,0,1-2.93-5c-.43-12.07-2.4-24-3.37-36-.37-4.63.67-9.07,1.56-13.5,1.13-5.66,2.17-11.32,3.16-17a6.85,6.85,0,0,0,.13-1c0-.72-.15-1.42-1-1.51s-1.11.57-1.24,1.3c-.52,3-.89,6.11-1.64,9.1-2.17,8.72-2.83,17.74-5.44,26.36a20.61,20.61,0,0,0-.94,7c.11,2-.88,2.19-2.41,1.88a48.34,48.34,0,0,1-12.79-4.71,44.37,44.37,0,0,1-17.25-15.88,2.83,2.83,0,0,1-.15-3.28A417.4,417.4,0,0,1,766.21,144c1.44-2.1,3-4.12,4.58-6.12,2.92-3.72,7.37-4.39,11.52-5.54,1.93-.53,4-.65,5.87-1.35.88-.33,1.46-.3,2,.64a6.11,6.11,0,0,0,2.54,2.23,1.16,1.16,0,0,0,1.63-.23c.5-.65.11-1.1-.35-1.56-2.18-2.21-2.17-2.22.64-3.6.67-.32,1.39-.53,2-.89,1.15-.64,2-.41,3.29.14l.11,0c7.84,3.39,15.87,5.9,24.63,4.58,1-.15,2.27-1.25,2.92-.5s.43,2.17.46,3.29c.19,7.37,3.38,13.88,6,20.53.8,2,2.11,3.33,4.83,2.75,2.89-.62,5.91-.19,8.84-1.28,1.54-.57,1.7-1.12,1.45-2.39A14.89,14.89,0,0,1,849,153Z"/><path class="cls-5" d="M547.77,189.39c7.71-17.49,15-35.18,21.55-53.13.32-.88.64-1.69-.42-2.2a76.3,76.3,0,0,0-7.57-3.29l.85-2.68a52,52,0,0,1,5.12,2,1.1,1.1,0,0,0,1.34,0c2.53-1.88,5.21-3.57,7.38-5.91.9-1,2.81-2.23,2-3.13-1-1.12-2.47.42-3.53,1.32a1.57,1.57,0,0,1-2,.21,1.23,1.23,0,0,1-.49-1.52,11,11,0,0,1,.85-1.72c1.15-2,2.71-3.79,3.8-6.27-2.58.93-4,2.66-5.35,4.35-.65.78-1.24,1.82-2.44,1s-.69-1.71-.29-2.69c1.33-3.25,2.65-6.51,3.89-9.8a11,11,0,0,0,.83-2.91l2.89.32a19.86,19.86,0,0,1-1.4,4.92c-.28.71-.5,1.44-.84,2.43,2-.5,4-1.71,5.29.27,1.49,2.34-.45,4.32-1.45,6.32,4,1.57,4.69,4,1.85,7.31a36.4,36.4,0,0,1-8.69,7.32c2.29,1.47,1.87,3.26,1.13,5.32-8.07,22.43-17.76,44.19-27,66.14-2.09,5-4.12,9.89-7.64,14a36.2,36.2,0,0,1-7.89,7c-3.16,2-6.78,2-10.35,2.1l-.08-2.59a20.92,20.92,0,0,0,7.6-1.59c5.63-2.26,9.78-7.08,12.38-12.73C542.18,202.94,544.82,196.09,547.77,189.39Z"/><path class="cls-5" d="M494.78,413c5.58,1.53,10.32.69,14.38-4,8.48-9.75,12.32-21.29,13.49-33.85.43-4.59-2.14-7.83-6.21-10-3.54-1.86-5.81.31-8.28,2.23a2.88,2.88,0,0,0-1.13,3c.93,7.55,1.78,15.12,2.72,22.67.13,1-.08,1.67-1.07,2a61.84,61.84,0,0,1-16.35,3.62c-4,.22-4,.22-3.85,4.23,0,.65,0,1.3,0,1.94C488.59,409.24,490.56,411.79,494.78,413Zm4.91-79.63c-1.08-10.63-1.95-21.29-2.28-32,0-.38,0-.77-.05-1.15l2.49-.18c.53,7.14,1,14.29,1.63,21.43.77,9.24,1.91,18.43,3.16,27.61.63,4.63,1.05,9.28,1.57,13.92.06.54-.21,1.25.4,1.55s.88-.36,1.24-.67c3.86-3.34,7.56-3.59,13,.67a12.5,12.5,0,0,1,4.72,12.1c-1.61,12.07-5.06,23.44-13.09,33-.42.5-.85,1-1.29,1.46-5.3,5.92-9.71,6.83-18.78,4-4.28-1.32-6.5-4.8-6.66-9.38-.06-1.73-.07-3.46,0-5.18.06-1.19-.33-1.46-1.49-1.32a9.55,9.55,0,0,1-1,.07l-.09-2.56a2.73,2.73,0,0,0,.87-.16c7-.76,13.74-.8,20.23-3.12,2.06-.73,2.43-1.67,2.2-3.52-.61-4.7-1.12-9.4-1.67-14.1-.81-7-1.61-14-2.45-20.93C501.48,347.7,500.42,340.53,499.69,333.32Z"/><path class="cls-6" d="M804.06,125.76c-.51.95-.29,1.36.74,1.7a58.94,58.94,0,0,0,14.55,2.94,17.83,17.83,0,0,0,6.54-.87,2.52,2.52,0,0,0,2-2.92c-.13-2.74,0-5.5.1-8.24.14-3.51.35-7,.55-10.81a7.33,7.33,0,0,0-2.14,2.13,20.91,20.91,0,0,1-6.31,5.21,20.55,20.55,0,0,1-11.77,1.71c-.66-.08-1.5-.5-1.62.77A22.18,22.18,0,0,1,804.06,125.76ZM782.42,61c-1.29.62-1.19,1.76-.9,3,.59,2.4,1.28,4.79,1.7,7.23.57,3.31,1.2,6.57-1.44,9.59-1.73,2-.94,4.9,1.67,6.3a7.29,7.29,0,0,1,3.74,5.12,9.79,9.79,0,0,0,1,2.68,21.41,21.41,0,0,0,8.54,13.62h0a22,22,0,0,0,11.58,5.68c5.31.91,10.26,0,14.32-4a35.88,35.88,0,0,0,4.3-5c.63-.89,2-.89,2.17-2.16a85.64,85.64,0,0,0,.85-8.61c0-.92-.23-1.38-1.24-1.25a2.93,2.93,0,0,1-1.38-.14c-.64-.24-1.27-.63-1-1.48s.83-.84,1.47-.62a2.45,2.45,0,0,0,2.28-.38c3.56-2.34,5.93-5.25,5-9.88-.28-1.45-.27-2.94-.57-4.38A15.18,15.18,0,0,0,832,70a2.24,2.24,0,0,0-2.55-1.14,5.64,5.64,0,0,0-3.76,4.92c0,1.18-.74,1.87-1.59,1.29-1.54-1-3.65-1.37-4.31-3.63-.41-1.39-1.12-2.71-1.47-4.15-.83-3.52-.85-3.57-4.51-3.9-2-.18-3.37-.85-4.08-2.89-.61-1.79-1.54-3.47-2.45-5.48a7.69,7.69,0,0,0-.28,3.42c0,3.66,0,3.66-3.5,3.31a17.15,17.15,0,0,0-2-.2c-3.14.08-4.77-1.67-5.57-4.49-.56-2-1.17-3.93-1.75-5.89a30.19,30.19,0,0,0,.68,8c.2,1.24.14,2.85-1.44,2.77-3.65-.19-8,.8-9.79-4.14C783.2,59,783.85,60.32,782.42,61Zm72.29,94.53c-2.32.16-4.52.21-5.22-2.94L849,153a14.89,14.89,0,0,0,.12,1.77c.25,1.27.09,1.82-1.45,2.39-2.93,1.09-6,.66-8.84,1.28-2.72.58-4-.71-4.83-2.75-2.6-6.65-5.79-13.16-6-20.53,0-1.12.15-2.58-.46-3.29s-1.9.35-2.92.5c-8.76,1.32-16.79-1.19-24.63-4.58l.82-1.9c.4.07.79-.24,1.17-1a24.36,24.36,0,0,0,2.56-7.79,1.42,1.42,0,0,0-1.06-1.8c-8.43-3.28-13.74-9.49-16.66-17.91-.35-1-.79-2-1.13-3a10.35,10.35,0,0,0-3.92-5.61,6.67,6.67,0,0,1-1.53-10c1.45-1.9,1.17-4.34.75-6.58-.55-2.89-1.36-5.73-1.92-8.62-.22-1.13-.7-1.39-1.75-1.3-1.2.1-2.44-.11-3.62.07-2,.31-3-.43-3.66-2.38a42,42,0,0,1-1-22.21A55.58,55.58,0,0,1,773.3,25c3.62-7.76,12.59-11.54,20.52-9.77a4.08,4.08,0,0,0,3.41-.78c6.62-4,13.75-5.95,21.52-4.05,2.8.69,5.68,1.21,8.1,2.91,7.45,5.28,14.47,11.05,19.6,18.74,1.55,2.33,3.19,4.61,4.62,7,4.46,7.64,5.78,16.25,7.92,24.6,2,7.86,3,15.94,5,23.82a70.86,70.86,0,0,0,6.73,16.29c5,9.2,9.65,18.54,12.78,28.57.69,2.17,1.31,4.36,1.93,6.56,1.09,3.84.48,5.41-3.25,7-1.92.81-1.83,1.46-.95,3.11q1.11,2.06,2.23,4.1l-1.67.91a28.48,28.48,0,0,0-6.51-8.25,10,10,0,0,0,.09,1.07c.49,2.76-.42,4-3.19,4.52-2,.34-4,.65-5.93,1.1a2.69,2.69,0,0,1-3.42-1.65c-.73-1.56-1.48-3.11-2.22-4.67a41.27,41.27,0,0,0,.56,6.81c.25,1.63-.46,2.45-2,2.55S856.18,155.43,854.71,155.54Z"/><path class="cls-4" d="M555.73,115.57c.19,1,.14,2.18,1.43,2.32s1.85-1,2.06-2.06a60.51,60.51,0,0,1,4.36-13.27,5,5,0,0,1,1-1.44c.18,2.53-.5,5-.88,7.41-.17,1.14-.49,2.25-.67,3.38s-.19,2.18,1.11,2.44,1.6-.79,1.89-1.69a26.4,26.4,0,0,1,4.13-8,11,11,0,0,1,1.75-1.87,8.31,8.31,0,0,1,1.38-.93,5.88,5.88,0,0,1,0,1.18,11,11,0,0,1-.83,2.91c-1.24,3.29-2.56,6.55-3.89,9.8-.4,1-.78,2,.29,2.69s1.79-.25,2.44-1c1.4-1.69,2.77-3.42,5.35-4.35-1.09,2.48-2.65,4.26-3.8,6.27a11,11,0,0,0-.85,1.72,1.23,1.23,0,0,0,.49,1.52,1.57,1.57,0,0,0,2-.21c1.06-.9,2.55-2.44,3.53-1.32.79.9-1.12,2.16-2,3.13-2.17,2.34-4.85,4-7.38,5.91a1.1,1.1,0,0,1-1.34,0,52,52,0,0,0-5.12-2,41.11,41.11,0,0,0-8.67-2c-.42,0-.89,0-1-.61-.89-5.55-1.54-11.1,1.05-16.43.12-.27.25-.53.57-1.17C555.38,110.84,555.3,113.26,555.73,115.57Z"/><path class="cls-6" d="M902.3,245c3.83,1.56,5.81,6.81,4.54,10.72a17.22,17.22,0,0,0-.35,2.17c-.37,1.8-1.17,3.19-3.29,3.11a1.27,1.27,0,0,0-1.3.66,3.19,3.19,0,0,1-4.26,1.14,2.06,2.06,0,0,0-2.51.35c-.73.65-1.78,1.19-2.6.74-2.44-1.36-5.51-1.71-7.29-4.14a9.52,9.52,0,0,1-1.38-8.27A11.23,11.23,0,0,0,884,246c-1.92-8.49-3.06-17.16-5.21-25.61-.89-3.51-1.89-7-2.75-10.5-.26-1.09-.89-1.17-1.76-1.13a91.06,91.06,0,0,1-9.64.24,3.33,3.33,0,0,1-2.95-1.56c-.25-.35-.33-1-.93-.86s-.4.77-.41,1.19A75.63,75.63,0,0,0,861,220.6c.09.53.11,1.07.2,1.6,1.11,6.21-1.4,10.82-6.42,14.2a2.26,2.26,0,0,0-.93,2.91c1.56,5.82,3.3,11.6,4.65,17.47,2.66,11.56,6.12,23,7.82,34.72a315.89,315.89,0,0,1,3.05,33.22c.21,5.56.84,11.09,1.26,16.64a17.84,17.84,0,0,1,.07,3c-.14,1.42,0,3.18-2.47,2.47-.59-.17-1.45.55-2.16.9a80.88,80.88,0,0,1-17.89,6c-1.8.4-2.41,1-2.35,3,.42,12.61,0,25.22-.36,37.82a12.22,12.22,0,0,1-4.35,9.17,9.2,9.2,0,0,1-12.14.2c-6-4.76-8.56-11.51-11-18.39a15.33,15.33,0,0,1-.37-7.37c.66-4.5,3.72-6.28,7.49-3.27.75.6,1.72,1.78,2.46,1.38.9-.49.33-1.94.37-3,.16-4.76.24-9.53.42-14.28.06-1.4-.29-1.87-1.79-1.71a77.3,77.3,0,0,1-14.27,0c-1.36-.1-1.84.2-2,1.61-.75,8.35-1.6,16.68-2.42,25-.15,1.47-.35,2.93-.5,4.4-.22,2.14-.61,4.16,0,6.45a9.58,9.58,0,0,1-4.62,11c-4.6,2.43-9.18,1.93-12.65-1.92a53.57,53.57,0,0,1-11.68-20.22c-1-3.21,1-8.59,4.81-10.44a5.52,5.52,0,0,1,6.82,1.17c1.11,1.14,2,2.48,3.29,4.09.72-7.41,1.52-14.32,1.76-21.28,0-1.29-.49-1.71-1.69-1.93-3.49-.64-7-1.42-10.44-2.13-2.93-.6-5.47-2.16-8.14-3.39-1.46-.66-1.26-2.13-1.34-3.34-.32-4.55-.53-9.1-.79-13.66-.62-10.61.4-21.14,1.18-31.72.88-12,3.86-23.53,5.55-35.32,1-7.3,3-14.44,3.63-21.8.22-2.47.21-5,.25-7.44A2.67,2.67,0,0,0,783,235c-1.86-2.44-1.55-5.28-1.75-8.08-.41-5.6-1.07-11.18-1.59-16.78-.29-3.07-.47-6.15-.73-9.22a3.37,3.37,0,0,0-.58-2.31,17.4,17.4,0,0,0-.88,5.29c-.36,4.83-1.38,5.63-6.1,4.6a44,44,0,0,1-11.49-4.19c-1-.54-1.43-.44-2.52.49-3.26,2.79-6.2,6.36-11.29,6.16-3.14-.13-5.57-1-7.41-3.62-2.83-4-4.54-8.49-6.42-12.93-5.19-12.25-8.76-25-12.11-37.85-1.12-4.28-2.18-8.58-3.23-12.88a2.71,2.71,0,0,0-1-1.61c-3.16-2.44-3.94-5.38-2.49-9.06a5.38,5.38,0,0,1,1-2c2.64-2.54,2.7-5.45,1.74-8.74a12.09,12.09,0,0,1-.12-6.18c.27-1.12.58-2.31,1.91-2.6s2.31.59,2.94,1.65a39.48,39.48,0,0,1,4.65,9.77,2.86,2.86,0,0,0,2.57,2.49c3.78.69,6.17,5.77,4.61,9.67a5,5,0,0,0-.12,3.54c3.19,11.14,6.33,22.29,10.21,33.22.18.52,0,1.38.84,1.39.57,0,.71-.72,1-1.18,6.22-11.69,13.72-22.57,21.21-33.44.92-1.33,1.94-2.57,2.89-3.87,3.17-4.32,8.09-5.52,12.8-6.39a59.53,59.53,0,0,0,16.24-5.65c1-.5,1.64-.6,2.35.45a1.55,1.55,0,0,0,.85.73l-.82,1.9-.11,0c-1.26-.55-2.14-.78-3.29-.14-.64.36-1.36.57-2,.89-2.81,1.38-2.82,1.39-.64,3.6.46.46.85.91.35,1.56a1.16,1.16,0,0,1-1.63.23,6.11,6.11,0,0,1-2.54-2.23c-.5-.94-1.08-1-2-.64-1.9.7-3.94.82-5.87,1.35-4.15,1.15-8.6,1.82-11.52,5.54-1.58,2-3.14,4-4.58,6.12a417.4,417.4,0,0,0-23.76,38.48,2.83,2.83,0,0,0,.15,3.28,44.37,44.37,0,0,0,17.25,15.88,48.34,48.34,0,0,0,12.79,4.71c1.53.31,2.52.16,2.41-1.88a20.61,20.61,0,0,1,.94-7c2.61-8.62,3.27-17.64,5.44-26.36.75-3,1.12-6.07,1.64-9.1.13-.73.39-1.38,1.24-1.3s1,.79,1,1.51a6.85,6.85,0,0,1-.13,1c-1,5.68-2,11.34-3.16,17-.89,4.43-1.93,8.87-1.56,13.5,1,12,2.94,24,3.37,36a5.84,5.84,0,0,0,2.93,5,13.9,13.9,0,0,0,3.44,1.63c5.2,1.52,10.41,3,15.68,4.31a20.71,20.71,0,0,0,7,.49,108.07,108.07,0,0,0,10.67-1.95,20.34,20.34,0,0,1,6.6-.21c8.66,1,16.83,0,24.16-5.23a9.69,9.69,0,0,0,4-7.07,37.27,37.27,0,0,0,0-7.76c-.55-6.23-.16-12.47-.39-18.7-.06-1.62.64-3.21.1-5a86.75,86.75,0,0,1-2.74-13.38c-.93-6.3-1.5-12.65-2.17-19-.08-.82-.14-1.77,1-1.83,1-.05,1,.87,1.21,1.59a11.89,11.89,0,0,1,.11,1.2c1,9.12,1.85,18.29,4,27.23,1.09,4.48,1.88,9,3.44,13.43a3,3,0,0,0,3.14,2.26c7.51-.1,15-.14,22.25-2.62,4.26-1.47,8.76-2.46,11.77-6.47a4.23,4.23,0,0,0,.86-4.48,126.29,126.29,0,0,0-12.36-25.68c-2.61-4.3-4.37-9.13-6.82-13.57l1.67-.91c6,10.91,12.27,21.66,17.46,33,1.34,2.92,1.83,6.15,3.37,9,.6,1.11-.22,1.85-.89,2.64-3,3.58-6.47,6.6-11.21,7.68-1.46.34-.83,1.31-.62,2,1,3.4,2.16,6.77,3.12,10.18,2.3,8.13,4.09,16.39,5.7,24.68C900.58,243.47,900.73,244.38,902.3,245Zm1.9,10c1.92-3.16-.23-5.06-2.23-7.4-.29,1.07-.08,2.14-1.23,2.16s-1.34-.93-1.58-1.78c-.09-.32-.16-.66-.22-1-2.64-13.07-5.32-26.13-9.38-38.85-.42-1.33-.82-1.77-2.16-1.3a29.88,29.88,0,0,1-7.89,1.47c-1.28.08-1.59.48-1.2,1.75,1,3.13,1.82,6.3,2.65,9.47,2.44,9.28,3.79,18.78,5.81,28.15a5,5,0,0,1-.41,3.06c-1.13,2.77-1,5.66,1,8,1.29,1.47,3.79,1.15,5.23,2.79.44.5,1.27-.18,1.71-.67a2.4,2.4,0,0,1,3.53-.54c1.22.78,2.13.59,2.43-1.05a1.3,1.3,0,0,1,1.8-1.11c2.27.94,2.1-.54,2.1-1.95C904.15,255.84,904,255.36,904.2,255.06Zm-38.94,90.17c2-1,3-2,2.74-4.38-.54-4.52-1-9.07-1.17-13.61-.5-12.75-1.3-25.48-3.64-38-3.12-16.67-7.55-33.06-11.75-49.49-.26-1-.7-.82-1.43-.53a37.12,37.12,0,0,1-19.31,2.47,25.15,25.15,0,0,0-9,.58,46.16,46.16,0,0,1-9.1,1.53,30.66,30.66,0,0,1-9.87-1.3c-5.23-1.71-10.87-2.07-15.85-4.67-.89-.47-1.17-.12-1.19.79a50.25,50.25,0,0,1-.26,6c-1.66,11.61-3.47,23.2-5.77,34.7-1.91,9.55-3.75,19.08-2.57,28.9.07.6,0,1.3-.62,1.58-1,.42-.84,1.22-.9,2a164.67,164.67,0,0,0,.08,25.9c.22,2.87.24,5.75.3,8.62a2,2,0,0,0,1.34,2,34.46,34.46,0,0,0,7.54,2.72c10.24,2.29,20.57,3.73,27.67,3.78a104,104,0,0,0,27.37-2C848.59,351.05,857.21,349.13,865.26,345.23Zm-21.78,11.34c0-1.3-.23-1.77-1.69-1.44a78.41,78.41,0,0,1-9.1,1.6c-1.68.17-1.85.85-1.89,2.26-.31,9.71-.18,19.43-1,29.11a5.5,5.5,0,0,0,3.28,5,9.62,9.62,0,0,0,8-.08,2.46,2.46,0,0,0,1.8-2.53c0-5.69,0-11.38,0-17.07h.61C843.46,367.83,843.43,362.2,843.48,356.57Zm-1.1,41c.25-.66.61-1.54,0-2.09-.41-.39-1.1.22-1.67.33s-1,.27-1.57.37c-5.92,1.13-13.13-2.22-11.85-10.45.18-1.12.23-2.26.33-3.32-.29-1,.64-2.28-.48-2.86-1.64-.84-2.87-2.19-4.43-3.1-1.09-.64-1.75-.39-2.16.77a9.83,9.83,0,0,0-.39,6.14c2,6.48,4.37,12.74,9.39,17.72S840.31,403,842.38,397.57Zm-34.36-39c.17-1.21-.36-1.52-1.42-1.59a56.88,56.88,0,0,1-6.8-.61c-2-.38-2.3.44-2.37,2.09-.15,3.68-.4,7.36-.69,11-.51,6.48-1.09,13-1.67,19.77,0,3,1.56,4.49,4.88,4.22a16.22,16.22,0,0,0,2.17-.4,2.62,2.62,0,0,0,2.33-2.53C806,379.92,806.54,369.2,808,358.57Zm-10.64,46c4.78-.12,7.86-3.24,7.67-7.7,0-1.22-.53-1.83-1.72-1.52-3.48.91-6.62.71-9.7-1.55-1-.78-1.5-1.27-1.39-2.43.22-2.33.45-4.67.64-7,0-.66.27-1.65-.06-1.93-1.9-1.62-2.53-4.09-4.16-5.87s-3.88-2-5.58-.12c-1.94,2.17-3,4.81-2,7.61a55.33,55.33,0,0,0,11.21,18.45A6.07,6.07,0,0,0,797.38,404.55ZM755,203.73c1.32-1,1.28-1.57-.17-2.4-5.65-3.25-9.65-8.15-13.45-13.33-2-2.69-2.37-5-.34-7.69a3.54,3.54,0,0,0,.21-3.73c-1.43-3.68-2.74-7.42-3.88-11.2-2.46-8.14-4.78-16.32-7.1-24.5a6.63,6.63,0,0,1,.25-4.76c1.19-3.09-1.13-6.92-4.07-6.78-1.76.08-2.27-.66-2.72-2.16a35.16,35.16,0,0,0-5.27-11c-1,3.06-.41,6,.33,8.93a4.88,4.88,0,0,1-1.13,5,12,12,0,0,0-2.54,4.53c-.64,2-.28,4.09,1.41,5.05,2,1.15,2.27,2.87,2.74,4.71,3.69,14.34,7.49,28.65,12.53,42.59a125.51,125.51,0,0,0,7.63,17.24c1.76,3.24,4.3,4.8,8.07,4.26a6.59,6.59,0,0,0,3.26-1.42C752.2,206,753.57,204.79,755,203.73Z"/><path class="cls-4" d="M902,247.66c2,2.34,4.15,4.24,2.23,7.4-.18.3-.05.78-.05,1.18,0,1.41.17,2.89-2.1,1.95a1.3,1.3,0,0,0-1.8,1.11c-.3,1.64-1.21,1.83-2.43,1.05a2.4,2.4,0,0,0-3.53.54c-.44.49-1.27,1.17-1.71.67-1.44-1.64-3.94-1.32-5.23-2.79-2-2.3-2.12-5.19-1-8a5,5,0,0,0,.41-3.06c-2-9.37-3.37-18.87-5.81-28.15-.83-3.17-1.69-6.34-2.65-9.47-.39-1.27-.08-1.67,1.2-1.75a29.88,29.88,0,0,0,7.89-1.47c1.34-.47,1.74,0,2.16,1.3,4.06,12.72,6.74,25.78,9.38,38.85.06.32.13.66.22,1,.24.85.45,1.81,1.58,1.78S901.68,248.73,902,247.66Z"/><path class="cls-4" d="M868,340.85c.29,2.38-.77,3.42-2.74,4.38-8,3.9-16.67,5.82-25.34,7.63a104,104,0,0,1-27.37,2c-7.1-.05-17.43-1.49-27.67-3.78a34.46,34.46,0,0,1-7.54-2.72,2,2,0,0,1-1.34-2c-.06-2.87-.08-5.75-.3-8.62a164.67,164.67,0,0,1-.08-25.9c.06-.8-.09-1.6.9-2,.65-.28.69-1,.62-1.58-1.18-9.82.66-19.35,2.57-28.9,2.3-11.5,4.11-23.09,5.77-34.7a50.25,50.25,0,0,0,.26-6c0-.91.3-1.26,1.19-.79,5,2.6,10.62,3,15.85,4.67a30.66,30.66,0,0,0,9.87,1.3,46.16,46.16,0,0,0,9.1-1.53,25.15,25.15,0,0,1,9-.58A37.12,37.12,0,0,0,850,239.21c.73-.29,1.17-.51,1.43.53,4.2,16.43,8.63,32.82,11.75,49.49,2.34,12.53,3.14,25.26,3.64,38C867,331.78,867.46,336.33,868,340.85Z"/><path class="cls-4" d="M841.79,355.13c1.46-.33,1.7.14,1.69,1.44-.05,5.63,0,11.26,0,16.89h-.61c0,5.69,0,11.38,0,17.07a2.46,2.46,0,0,1-1.8,2.53,9.62,9.62,0,0,1-8,.08,5.5,5.5,0,0,1-3.28-5c.81-9.68.68-19.4,1-29.11,0-1.41.21-2.09,1.89-2.26A78.41,78.41,0,0,0,841.79,355.13Z"/><path class="cls-4" d="M842.42,395.48c.57.55.21,1.43,0,2.09-2.07,5.45-7.81,8.46-12.79,3.51s-7.38-11.24-9.39-17.72a9.83,9.83,0,0,1,.39-6.14c.41-1.16,1.07-1.41,2.16-.77,1.56.91,2.79,2.26,4.43,3.1,1.12.58.19,1.85.48,2.86-.1,1.06-.15,2.2-.33,3.32-1.28,8.23,5.93,11.58,11.85,10.45.53-.1,1-.27,1.57-.37S842,395.09,842.42,395.48Z"/><path class="cls-4" d="M796.75,108.51h0a21.41,21.41,0,0,1-8.54-13.62,9.79,9.79,0,0,1-1-2.68,7.29,7.29,0,0,0-3.74-5.12c-2.61-1.4-3.4-4.34-1.67-6.3,2.64-3,2-6.28,1.44-9.59-.42-2.44-1.11-4.83-1.7-7.23-.29-1.19-.39-2.33.9-3s.78-2,1.16-3.2c1.84,4.94,6.14,3.95,9.79,4.14,1.58.08,1.64-1.53,1.44-2.77a30.19,30.19,0,0,1-.68-8c.58,2,1.19,3.92,1.75,5.89.8,2.82,2.43,4.57,5.57,4.49a17.15,17.15,0,0,1,2,.2c3.54.35,3.53.35,3.5-3.31a7.69,7.69,0,0,1,.28-3.42c.91,2,1.84,3.69,2.45,5.48.71,2,2.09,2.71,4.08,2.89,3.66.33,3.68.38,4.51,3.9.35,1.44,1.06,2.76,1.47,4.15.66,2.26,2.77,2.6,4.31,3.63.85.58,1.56-.11,1.59-1.29a5.64,5.64,0,0,1,3.76-4.92A2.24,2.24,0,0,1,832,70a15.18,15.18,0,0,1,2.61,6.26c.3,1.44.29,2.93.57,4.38.9,4.63-1.47,7.54-5,9.88a2.45,2.45,0,0,1-2.28.38c-.64-.22-1.25-.11-1.47.62s.36,1.24,1,1.48a2.93,2.93,0,0,0,1.38.14c1-.13,1.25.33,1.24,1.25a85.64,85.64,0,0,1-.85,8.61c-.14,1.27-1.54,1.27-2.17,2.16a35.88,35.88,0,0,1-4.3,5c-4.06,4-9,4.92-14.32,4A22,22,0,0,1,796.75,108.51Z"/><path class="cls-4" d="M828.56,107.56c-.2,3.78-.41,7.3-.55,10.81-.1,2.74-.23,5.5-.1,8.24a2.52,2.52,0,0,1-2,2.92,17.83,17.83,0,0,1-6.54.87,58.94,58.94,0,0,1-14.55-2.94c-1-.34-1.25-.75-.74-1.7a22.18,22.18,0,0,0,2.66-8.38c.12-1.27,1-.85,1.62-.77a20.55,20.55,0,0,0,11.77-1.71,20.91,20.91,0,0,0,6.31-5.21A7.33,7.33,0,0,1,828.56,107.56Z"/><path class="cls-6" d="M825.92,139.28c.07.7-.53,1-1.16,1.16-1.18.24-2.37.44-3.1.57-1.31,0-2.28,0-2.38-1s1-1.07,1.74-1.18c1.12-.16,2.24-.39,3.37-.5C825.09,138.27,825.84,138.44,825.92,139.28Z"/><path class="cls-6" d="M814.7,138.74c.16.75-.34,1.09-1,1.25a12,12,0,0,1-5.34,0,1,1,0,0,1-.92-1.13c.06-.74.64-1,1.29-.94s1.6.09,2.55.15l2-.17C814,137.85,814.56,138,814.7,138.74Z"/><path class="cls-4" d="M806.6,357c1.06.07,1.59.38,1.42,1.59-1.48,10.63-2.07,21.35-3.57,32a2.62,2.62,0,0,1-2.33,2.53,16.22,16.22,0,0,1-2.17.4c-3.32.27-4.92-1.25-4.88-4.22.58-6.81,1.16-13.29,1.67-19.77.29-3.67.54-7.35.69-11,.07-1.65.39-2.47,2.37-2.09A56.88,56.88,0,0,0,806.6,357Z"/><path class="cls-4" d="M805.05,396.85c.19,4.46-2.89,7.58-7.67,7.7a6.07,6.07,0,0,1-5-2.06A55.33,55.33,0,0,1,781.12,384c-1-2.8,0-5.44,2-7.61,1.7-1.9,3.85-1.76,5.58.12s2.26,4.25,4.16,5.87c.33.28.11,1.27.06,1.93-.19,2.33-.42,4.67-.64,7-.11,1.16.35,1.65,1.39,2.43,3.08,2.26,6.22,2.46,9.7,1.55C804.52,395,805,395.63,805.05,396.85Z"/><path class="cls-6" d="M802.21,135.6c.54.19.93.58.7,1.23s-.85.77-1.47.8a15.34,15.34,0,0,1-4.16-1.45c-.56-.3-1-.79-.62-1.49a1.06,1.06,0,0,1,1.38-.51C799.43,134.63,800.83,135.09,802.21,135.6Z"/><path class="cls-4" d="M754.86,201.33c1.45.83,1.49,1.44.17,2.4s-2.83,2.23-4.24,3.36a6.59,6.59,0,0,1-3.26,1.42c-3.77.54-6.31-1-8.07-4.26A125.51,125.51,0,0,1,731.83,187c-5-13.94-8.84-28.25-12.53-42.59-.47-1.84-.71-3.56-2.74-4.71-1.69-1-2-3-1.41-5.05a12,12,0,0,1,2.54-4.53,4.88,4.88,0,0,0,1.13-5c-.74-2.9-1.32-5.87-.33-8.93a35.16,35.16,0,0,1,5.27,11c.45,1.5,1,2.24,2.72,2.16,2.94-.14,5.26,3.69,4.07,6.78a6.63,6.63,0,0,0-.25,4.76c2.32,8.18,4.64,16.36,7.1,24.5,1.14,3.78,2.45,7.52,3.88,11.2a3.54,3.54,0,0,1-.21,3.73c-2,2.69-1.64,5,.34,7.69C745.21,193.18,749.21,198.08,754.86,201.33Z"/><path class="cls-5" d="M576.32,101.82a11.42,11.42,0,0,1-.1,1.55l-2.89-.32a5.88,5.88,0,0,0,0-1.18,8.31,8.31,0,0,0-1.38.93l-2.23-1.9c.67-.55,1.32-1.08,2-1.6a3,3,0,0,1,3.22-.64C576.19,99.29,576.32,100.6,576.32,101.82Z"/><path class="cls-5" d="M569.69,100.9l2.23,1.9a11,11,0,0,0-1.75,1.87,26.4,26.4,0,0,0-4.13,8c-.29.9-.72,1.92-1.89,1.69s-1.27-1.41-1.11-2.44.5-2.24.67-3.38c.38-2.45,1.06-4.88.88-7.41l3-.15c0,.53.05,1.08.08,1.66C568.36,102,569,101.46,569.69,100.9Z"/><path class="cls-4" d="M568.9,134.06c1.06.51.74,1.32.42,2.2-6.6,18-13.84,35.64-21.55,53.13-2.95,6.7-5.59,13.55-8.65,20.19-2.6,5.65-6.75,10.47-12.38,12.73a20.92,20.92,0,0,1-7.6,1.59,18,18,0,0,1-13-5.44c-6.29-6.08-10.51-13.47-13.68-21.5a196.2,196.2,0,0,1-9.12-30.31,4.88,4.88,0,0,1-.12-1.07c0-1.19-.39-2.06-1.72-1.88s-1.37,1.26-1.13,2.33a240,240,0,0,0,6.87,25.37c2.88,8.48,6.36,16.65,12,23.76a3,3,0,0,1,.59,2.2c-.56,10.18.79,20.23,2.14,30.28.76,5.62,1.86,11.28,1.78,16.91s1.74,10.66,2.19,16c.07.82.11,1.63.1,2.46,0,2.69,0,3.2-2.65,4.1a119.84,119.84,0,0,1-31.06,5.79A123.27,123.27,0,0,1,434,289.44a80.07,80.07,0,0,1-14.37-5.19,29.56,29.56,0,0,1-8.27-5.77c-1.35-1.32-1.38-3.29-1.71-5-.18-1-.35-1.9-.52-2.85-.38-2.17-.73-4.34-1-6.52-1.57-11.44-1.86-22.9.36-34.52a2,2,0,0,0,0-.24c1.61-8.57,2.1-17.4,2.6-26.13.7-12.29,2.05-24.49,3.27-36.72.22-2.14.35-4.3.48-6.45.05-.85-.24-1.64-1.21-1.76s-1.33.72-1.42,1.52c-.4,3.72-.74,7.43-1.13,11.15-.77,7.5-1.67,15-2.32,22.5-.47,5.58-.5,11.2-1.16,16.77-.36,3.13-.77,6.26-1.22,9.82a103.73,103.73,0,0,1-13.48-23.13c-1.57-3.69-.86-7.33-.56-11,.9-11.11,4.44-21.66,6.89-32.45.83-3.67,1.61-7.35,2.58-11a68.85,68.85,0,0,1,2.76-8.33,30.18,30.18,0,0,1,1.67-3.49c2-3.43,4.39-5.4,8.92-5.09,12.49.86,24.94,1.78,37.23,4.26,6.44,1.31,13,1,19.51,2,9.63,1.48,19.36,1.21,29.05,1.72a17.46,17.46,0,0,0,3.23-.12c3.06-.39,5.19,1,7,3.32a52.38,52.38,0,0,1,5.75,10.58c4.33,9.88,7.79,20.1,11.85,30.08a4.41,4.41,0,0,0,1,1.9,1.63,1.63,0,0,0,2.17.13,1.37,1.37,0,0,0,.41-1.92c-1.85-3.11-2.59-6.69-4.18-9.9a4.11,4.11,0,0,1-.08-3.71,132.09,132.09,0,0,1,10.94-21c2.62-3.95,5.06-8,7.47-12.12a3.68,3.68,0,0,1,3.31-2,29.48,29.48,0,0,1,11.55,2A76.3,76.3,0,0,1,568.9,134.06Z"/><path class="cls-5" d="M567.56,101l-3,.15a5,5,0,0,0-1,1.44,60.51,60.51,0,0,0-4.36,13.27c-.21,1.07-.68,2.21-2.06,2.06s-1.24-1.31-1.43-2.32c-.43-2.31-.35-4.73-1.59-7.64l1.77-1.91a5.43,5.43,0,0,1,1.33,1.86l.51,1.11c1.08-2.61,2.09-5.11,3.13-7.59a11.85,11.85,0,0,1,2.36-3.83,2.49,2.49,0,0,1,2.53-.82,2.22,2.22,0,0,1,1.62,2.08C567.48,99.53,567.53,100.23,567.56,101Z"/><path class="cls-5" d="M562.18,128.09l-.85,2.68a29.48,29.48,0,0,0-11.55-2,3.68,3.68,0,0,0-3.31,2c-2.41,4.09-4.85,8.17-7.47,12.12a132.09,132.09,0,0,0-10.94,21,4.11,4.11,0,0,0,.08,3.71c1.59,3.21,2.33,6.79,4.18,9.9a1.37,1.37,0,0,1-.41,1.92,1.63,1.63,0,0,1-2.17-.13,4.41,4.41,0,0,1-1-1.9c-4.06-10-7.52-20.2-11.85-30.08a52.38,52.38,0,0,0-5.75-10.58c-1.77-2.37-3.9-3.71-7-3.32a17.46,17.46,0,0,1-3.23.12c-9.69-.51-19.42-.24-29.05-1.72-6.47-1-13.07-.67-19.51-2-12.29-2.48-24.74-3.4-37.23-4.26-4.53-.31-7,1.66-8.92,5.09a30.18,30.18,0,0,0-1.67,3.49,68.85,68.85,0,0,0-2.76,8.33l-2.59-.7c.39-1.47.79-2.93,1.18-4.4,1.26-4.73,3.27-9.18,7.05-12.62a7.12,7.12,0,0,1,6.51-1.91,38.54,38.54,0,0,0,4.94.29c.21,0,.53,0,.62-.06,2.63-3.45,7.18-3.82,10.33-6.43.92-.76,2.15-1.13,2.6-2.43.26-.74,1.06-.74,1.69-.63,1.89.32,2.46-.76,2.86-2.33a59.22,59.22,0,0,0,1.63-17.72l2.71-.09a60.65,60.65,0,0,1-1.94,20l1.2.17c5.3.69,10.63.32,15.94.4s10.77.56,16.16.79c2.54.11,2.51.06,1.63-2.21a12.42,12.42,0,0,1-1.07-3.47l2.58-.6a20,20,0,0,0,1.9,4.93c.35.71.83.75,1.57.64,1.62-.23,2.25.65,1.47,2-.43.77-.37,1,.25,1.48a104.47,104.47,0,0,1,9.78,8.79c1.4,1.35,3.74,1.62,4.38,3.82,0,.1.38.15.58.15,2.52,0,5.16.52,7.52-.08,3.13-.78,5.35.45,7.48,2.13,3.28,2.61,5.26,6.23,7,9.95a198.79,198.79,0,0,1,8.09,19.48c1.3-2.89,2.38-5.34,3.51-7.77,4.36-9.34,10.47-17.64,15.58-26.54,1.2-2.1,3.16-1.13,4.75-1.47a43.85,43.85,0,0,1,0-15,9,9,0,0,1,1.71-3.91c1.5-1.88,3.13-2.23,4.45-1.13l-1.77,1.91c-.32.64-.45.9-.57,1.17-2.59,5.33-1.94,10.88-1.05,16.43.1.58.57.56,1,.61A41.11,41.11,0,0,1,562.18,128.09ZM491,130.21c-3.79-3.48-7.1-6.65-10.56-9.65-1.37-1.18-3.09-2.82-4.64-2.82-8.19,0-16.34-1.27-24.54-.76a68.43,68.43,0,0,1-10.1-.57c-2.18-.19-4.74-.93-6.53.29-3.49,2.37-7.09,4.52-10.75,6.51C446.16,125.14,468.11,129.74,491,130.21Z"/><path class="cls-4" d="M516.44,365.16c4.07,2.14,6.64,5.38,6.21,10-1.17,12.56-5,24.1-13.49,33.85-4.06,4.66-8.8,5.5-14.38,4-4.22-1.16-6.19-3.71-6.3-8.12,0-.64,0-1.29,0-1.94-.12-4-.12-4,3.85-4.23A61.84,61.84,0,0,0,508.68,395c1-.33,1.2-1,1.07-2-.94-7.55-1.79-15.12-2.72-22.67a2.88,2.88,0,0,1,1.13-3C510.63,365.47,512.9,363.3,516.44,365.16Z"/><path class="cls-5" d="M519.14,223.9l.08,2.59-.71,0c-6.37.25-11.32-2.65-16-7.43a106.3,106.3,0,0,0,1.1,19.61c1.55,9.36,2.32,18.82,3.4,28.23q.75,6.7,1.38,13.42l-2.52.23c-.45-5.37-2.27-10.53-2.19-16s-1-11.29-1.78-16.91c-1.35-10-2.7-20.1-2.14-30.28a3,3,0,0,0-.59-2.2c-5.6-7.11-9.08-15.28-12-23.76A240,240,0,0,1,480.37,166c-.24-1.07-.25-2.13,1.13-2.33s1.74.69,1.72,1.88a4.88,4.88,0,0,0,.12,1.07A196.2,196.2,0,0,0,492.46,197c3.17,8,7.39,15.42,13.68,21.5A18,18,0,0,0,519.14,223.9Z"/><path class="cls-5" d="M504.07,5.31c3.77,1.29,5.36,3.78,5,7.77a14.07,14.07,0,0,1-2.62,7.2,1.79,1.79,0,0,0-.48,1.89c1.68,5.31.28,8.61-4.6,11.31A10.06,10.06,0,0,1,497.12,35c-1.72.11-1.92.54-1.4,2.17a65.87,65.87,0,0,1,2.63,21.09,24.22,24.22,0,0,0,.45,6,7.33,7.33,0,0,0,3.94,5.08c6.31,3.33,5,8.33,1.36,12.37a5.36,5.36,0,0,0-.93,1.42,62.42,62.42,0,0,1-10.52,17c-2.92,3.4-6.27,6.31-10.81,7.49-2,.52-4,.11-6.11.1,0,.32.08.64.14,1l-2.58.6c-.13-2-1.21-2.75-2.9-3.37a19.36,19.36,0,0,1-11.22-10.12c-.43-.9-1.09-2,.27-2.56s1.76.56,2.2,1.49a15.48,15.48,0,0,0,7.42,7.55c4.15,2,8.49,4,13.21,2.17a20,20,0,0,0,8.12-6.2l.39-.36a13.61,13.61,0,0,0,1.43-1.85,6.85,6.85,0,0,0,1.09-1.7,2.73,2.73,0,0,0,1.23-1.64h0a2.39,2.39,0,0,0,.41-.47c3.35-4.84,5.38-10.45,8.92-15.2,1.16-1.55.54-3.16-1.07-4.27-.71-.49-1.44-.95-2.16-1.42a11,11,0,0,1-5.09-8.07,45.26,45.26,0,0,1-.18-6.68,61.44,61.44,0,0,0-2.61-19.57c-.38-1.22-.65-2.09-2.19-1.12a6.34,6.34,0,0,1-3.14.66,38.14,38.14,0,0,1-11.11-1.16c-.94-.25-1.57-.47-1.74.91a7.27,7.27,0,0,1-2.86,4.67A19.64,19.64,0,0,1,461,45.38c-.6.06-1.17-.13-1.61.67a15.13,15.13,0,0,1-7.82,6.46c-.56.24-1.38.27-1.41,1.12-.12,3-2.34,4.45-4.52,5.87-.73.47-1.53.71-.76,1.82a1.17,1.17,0,0,1-.34,1.56c-.52.41-1,.25-1.58-.07-2-1.15-3.49-.81-4.18,1.31-1.33,4.12-1.6,8.36.22,12.41.75,1.67,1.76,2.49,2.89,2.49l.84,2.81a3.08,3.08,0,0,0-2.22,3.6,13.93,13.93,0,0,1,.39,1.67l-2.67.39c-2.11,1.68-4.16,2.91-6.79,2.32-4.57-1-7.11-5.49-5.8-10.61.42-1.63.19-2.33-1.34-3.27-4-2.48-5.17-6.51-4.88-11a23.22,23.22,0,0,0-1.58-9.3,15,15,0,0,1,0-11.75,29.53,29.53,0,0,1,3.79-7.23,2.53,2.53,0,0,0,.44-2.75,10.2,10.2,0,0,1,.35-7.58,28,28,0,0,1,7.37-11c.48-.42,1-1.08,1.56-1.08,2.41,0,2.86-2,3.85-3.45A23.83,23.83,0,0,1,442,3.92c4.6-2.91,7.55-2.84,11.85.45a2.73,2.73,0,0,0,3.55.2C462.71,1.66,468.24.42,473.87,4a2.23,2.23,0,0,0,2.92-.2,20.77,20.77,0,0,1,3.64-2.28c4.91-2.46,8.85-1.87,12.78,2,1.18,1.15,2.18,1.88,4,1.47A12.61,12.61,0,0,1,504.07,5.31Z"/><path class="cls-5" d="M508.78,284.21c.27,3.05-.56,4.26-3.45,5.37-1.61.61-3.27,1.1-4.92,1.58-.92.27-1.18.72-1.1,1.7,0,.19,0,.38,0,.57l-2.61.2c-.08-.81-.27-1.36-1.33-1.09a119.79,119.79,0,0,1-25.77,3.38c-.94,0-1.53.29-1.41,1.39h0l-2.61.27c-.1-1.29-.55-1.5-1.68-1.47a40.89,40.89,0,0,1-4.95-.2c-1.6-.15-2.1.27-2.18,2,0,.8-.05,1.6-.05,2.4l-2.52,0c0-.91,0-1.81,0-2.71.12-1.6-.52-2.1-2.08-2.22-3.14-.23-6.27-.68-9.4-1.09a83,83,0,0,1-20.1-5.5c-1.34-.53-1.6-.11-1.6.67l-2.58.1c0-.49,0-1,0-1.47a1.79,1.79,0,0,0-1.2-1.79,49.34,49.34,0,0,1-5-3c-4.58-2.86-5.49-7.43-6-12.22l2.8-.49c.17.95.34,1.9.52,2.85.33,1.71.36,3.68,1.71,5a29.56,29.56,0,0,0,8.27,5.77A80.07,80.07,0,0,0,434,289.44a123.27,123.27,0,0,0,38.27,3.49,119.84,119.84,0,0,0,31.06-5.79c2.62-.9,2.62-1.41,2.65-4.1,0-.83,0-1.64-.1-2.46l2.52-.23C508.55,281.64,508.66,282.92,508.78,284.21Z"/><path class="cls-4" d="M506.47,389.92c.23,1.85-.14,2.79-2.2,3.52-6.49,2.32-13.25,2.36-20.23,3.12a2.73,2.73,0,0,1-.87.16c-1.22,0-1.66-1.18-2-2.62-2.89-12.69-4.26-25.6-5.78-38.5-1.31-11.18-3-22.33-4.54-33.48-1.17-8.24-1.74-16.54-2.64-24.8h0c-.12-1.1.47-1.36,1.41-1.39a119.79,119.79,0,0,0,25.77-3.38c1.06-.27,1.25.28,1.33,1.09.2,2.19.49,4.37.62,6.56,0,.38,0,.77.05,1.15.33,10.69,1.2,21.35,2.28,32,.73,7.21,1.79,14.38,2.66,21.57.84,7,1.64,13.95,2.45,20.93C505.35,380.52,505.86,385.22,506.47,389.92Z"/><path class="cls-5" d="M499.35,293.43c.18,2.19.34,4.38.5,6.58l-2.49.18c-.13-2.19-.42-4.37-.62-6.56Z"/><path class="cls-5" d="M483.17,396.72l.09,2.56c-2.8,0-4.15-1.44-4.91-4.58-3.5-14.5-4.61-29.34-6.46-44.08-1.41-11.18-3.14-22.32-4.53-33.51-.8-6.48-1.25-13-1.74-19.52l2.61-.27c.9,8.26,1.47,16.56,2.64,24.8,1.58,11.15,3.23,22.3,4.54,33.48,1.52,12.9,2.89,25.81,5.78,38.5C481.51,395.54,482,396.72,483.17,396.72Z"/><path class="cls-7" d="M480.39,120.56c3.46,3,6.77,6.17,10.56,9.65-22.84-.47-44.79-5.07-67.12-7,3.66-2,7.26-4.14,10.75-6.51,1.79-1.22,4.35-.48,6.53-.29a68.43,68.43,0,0,0,10.1.57c8.2-.51,16.35.79,24.54.76C477.3,117.74,479,119.38,480.39,120.56Z"/><path class="cls-5" d="M468.65,377.22a58.07,58.07,0,0,1-6.18,26.83c-2.85,5.76-7,10.48-13.42,12.3-8.78,2.46-16.89-3.07-17-12.19-.05-4.24-1.84-6.87-4.57-9.21a4.59,4.59,0,0,1-1.68-3.86c-.31-12-1.88-23.9-3.29-35.81-.76-6.42-1-12.89-1.53-19.34-.52-6.88-1.08-13.75-1.53-20.63-.34-5.24-.78-10.48-.61-15.73,0-.88,0-1.75,0-2.63l2.69-.06c.12,5,.14,10,.55,15,.74,9.16,1.38,18.32,2.05,27.47.4,5.59.73,11.18,1.4,16.73,1.24,10.12,2.6,20.22,2.95,30.42.11,3.41,0,6.85,3.51,9.28,3.69,2.53,7.79,3.53,11.94,4.66a11.35,11.35,0,0,0,8.53-1.19A3,3,0,0,0,454.3,397c.17-1.42.33-2.85.38-4.28.23-7.11.23-14.23.34-21.34.29-17.48.1-35,.09-52.44,0-.63.26-1.42-.32-1.83-1.18-.83-1-2-1-3.12q0-6,0-12.06h.44c0-.53,0-1.07,0-1.6l2.52,0c0,5.73.77,11.42,1,17.13.71,16,.4,32.09.16,48.13,0,1.78,0,2.72,2.34,2.73C464.94,368.35,468.59,372.57,468.65,377.22Zm-3.07,2.45c.05-5.45-.89-7.1-4.78-8.34-1.94-.62-2.92,0-3,2-.16,7.62,0,15.24-.34,22.86a6.2,6.2,0,0,1-3.05,5.34,14.53,14.53,0,0,1-5.21,2c-4.4.81-8.35-.92-12.38-2.12-2.47-.74-2.53-.81-2.33,1.86.54,7.16,6.35,13.77,15.5,9.67a19.61,19.61,0,0,0,9.42-9.47A53.64,53.64,0,0,0,465.58,379.67Z"/><path class="cls-4" d="M460.8,371.33c3.89,1.24,4.83,2.89,4.78,8.34a53.64,53.64,0,0,1-6.14,23.77,19.61,19.61,0,0,1-9.42,9.47c-9.15,4.1-15-2.51-15.5-9.67-.2-2.67-.14-2.6,2.33-1.86,4,1.2,8,2.93,12.38,2.12a14.53,14.53,0,0,0,5.21-2,6.2,6.2,0,0,0,3.05-5.34c.36-7.62.18-15.24.34-22.86C457.88,371.36,458.86,370.71,460.8,371.33Z"/><path class="cls-4" d="M455.11,319c0,17.48.2,35-.09,52.44-.11,7.11-.11,14.23-.34,21.34-.05,1.43-.21,2.86-.38,4.28a3,3,0,0,1-1.83,2.25,11.35,11.35,0,0,1-8.53,1.19c-4.15-1.13-8.25-2.13-11.94-4.66-3.53-2.43-3.4-5.87-3.51-9.28-.35-10.2-1.71-20.3-2.95-30.42-.67-5.55-1-11.14-1.4-16.73-.67-9.15-1.31-18.31-2.05-27.47-.41-5-.43-10-.55-15,0-.95,0-1.89-.07-2.84-.05-1.29-.22-2.58-.33-3.86,0-.24,0-.47,0-.67,0-.78.26-1.2,1.6-.67a83,83,0,0,0,20.1,5.5c3.13.41,6.26.86,9.4,1.09,1.56.12,2.2.62,2.08,2.22-.07.9-.06,1.8,0,2.71,0,.53,0,1.07,0,1.6h-.44q0,6,0,12.06c0,1.12-.22,2.29,1,3.12C455.37,317.56,455.11,318.35,455.11,319Z"/><path class="cls-5" d="M449.2,74.25a1.27,1.27,0,0,1,.38,1.74c-1.67,2.52-3.4,5-6.63,5.77l-.26.07L441.85,79a4.3,4.3,0,0,0,3-1.71c.87-1,1.69-2,2.6-2.87A1.22,1.22,0,0,1,449.2,74.25Z"/><path class="cls-5" d="M441.3,92c0,.47.05.94.07,1.41l-2.71.09c-.05-1.15-.13-2.31-.23-3.47-.06-.76-.14-1.52-.24-2.58l2.67-.39A43.16,43.16,0,0,1,441.3,92Z"/><path class="cls-5" d="M421.54,296.89l-2.69.06c-.06-2.45-.24-4.89-.33-7.33l2.58-.1c0,.2,0,.43,0,.67.11,1.28.28,2.57.33,3.86C421.5,295,421.53,295.94,421.54,296.89Z"/><path class="cls-5" d="M413.66,158.29c1,.12,1.26.91,1.21,1.76-.13,2.15-.26,4.31-.48,6.45-1.22,12.23-2.57,24.43-3.27,36.72-.5,8.73-1,17.56-2.6,26.13L406,228.9c.13-.75.2-1.52.34-2.27a3.78,3.78,0,0,0-1-3.33c-6.36-7.61-11-16.24-14.94-25.29-1.95-4.43-1.41-8.8-.85-13.26,1.87-14.64,5.89-28.79,9.73-43l2.59.7c-1,3.62-1.75,7.3-2.58,11-2.45,10.79-6,21.34-6.89,32.45-.3,3.69-1,7.33.56,11a103.73,103.73,0,0,0,13.48,23.13c.45-3.56.86-6.69,1.22-9.82.66-5.57.69-11.19,1.16-16.77.65-7.51,1.55-15,2.32-22.5.39-3.72.73-7.43,1.13-11.15C412.33,159,412.59,158.15,413.66,158.29Z"/><path class="cls-5" d="M409.15,270.63l-2.8.49c-.21-2.22-.44-4.45-.75-6.66l2.52-.35C408.42,266.29,408.77,268.46,409.15,270.63Z"/><path class="cls-5" d="M408.52,229.35a2,2,0,0,1,0,.24c-2.22,11.62-1.93,23.08-.36,34.52l-2.52.35a59.28,59.28,0,0,0-1.27-6.5,30.43,30.43,0,0,1-.74-10.77c.59-5.64.34-11.44,2.08-17a8.54,8.54,0,0,0,.3-1.33Z"/></g></g></svg>